<?xml version="1.0" encoding="UTF-8" standalone="no"?>
<!-- Uploaded to: SVG Repo, www.svgrepo.com, Generator: SVG Repo Mixer Tools -->

<svg
   xmlns:dc="http://purl.org/dc/elements/1.1/"
   xmlns:cc="http://creativecommons.org/ns#"
   xmlns:rdf="http://www.w3.org/1999/02/22-rdf-syntax-ns#"
   xmlns:svg="http://www.w3.org/2000/svg"
   xmlns="http://www.w3.org/2000/svg"
   xmlns:sodipodi="http://sodipodi.sourceforge.net/DTD/sodipodi-0.dtd"
   xmlns:inkscape="http://www.inkscape.org/namespaces/inkscape"
   fill="#000000"
   height="800px"
   width="800px"
   version="1.1"
   id="Layer_1"
   viewBox="0 0 460.427 460.427"
   xml:space="preserve"
   sodipodi:docname="motodriver.svg"
   inkscape:version="0.92.4 (5da689c313, 2019-01-14)"><metadata
   id="metadata857"><rdf:RDF><cc:Work
       rdf:about=""><dc:format>image/svg+xml</dc:format><dc:type
         rdf:resource="http://purl.org/dc/dcmitype/StillImage" /><dc:title></dc:title></cc:Work></rdf:RDF></metadata><defs
   id="defs855" /><sodipodi:namedview
   pagecolor="#ffffff"
   bordercolor="#666666"
   borderopacity="1"
   objecttolerance="10"
   gridtolerance="10"
   guidetolerance="10"
   inkscape:pageopacity="0"
   inkscape:pageshadow="2"
   inkscape:window-width="1920"
   inkscape:window-height="1017"
   id="namedview853"
   showgrid="false"
   inkscape:zoom="0.53"
   inkscape:cx="265.84576"
   inkscape:cy="314.48255"
   inkscape:window-x="1912"
   inkscape:window-y="-8"
   inkscape:window-maximized="1"
   inkscape:current-layer="Layer_1" />
<g
   id="XMLID_800_">
	<g
   id="g849">
		<g
   id="g847">
			<circle
   cx="225.108"
   cy="41.301998"
   r="38.373001"
   id="circle841" />
			<path
   d="m 397.111,330.868 c -7.377,0 -14.458,1.281 -21.047,3.611 l -3.12,-9.271 c 6.069,-1.88 12.506,-2.914 19.175,-2.957 8.102,-0.052 15.106,-6.153 15.609,-14.239 0.549,-8.84 -6.458,-16.18 -15.179,-16.18 -10.213,0 -20.059,1.595 -29.309,4.541 l -20.71,-61.54 h 9.315 c 3.709,7.964 10.934,13.96 19.685,15.978 3.329,0.768 6.52,-1.762 6.52,-5.191 v -45.936 c 0,-3.406 -3.164,-5.96 -6.484,-5.199 -8.767,2.01 -16.007,8.012 -19.721,15.987 l -16.36477,0.38393 c -5.75231,-17.21346 -17.15845,-24.77696 -20.44944,-16.43018 -17.97957,-5.84069 2.69981,42.78048 9.58021,63.53725 -1.71,1.595 16.043,-21.00382 -55.935,92.19518 l -88.64294,-0.54296 c -2.564,8.595 19.25795,19.89265 11.18595,25.81665 -1.468,1.077 46.93499,12.89713 45.32899,13.74713 h 19.837 c 8.186,0 15.805,-4.183 20.2,-11.09 l 57.851,-90.93 6.585,19.567 c -27.031,17.072 -45.069,47.145 -45.247,81.37 -0.043,8.292 6.381,15.424 14.668,15.71 8.646,0.299 15.749,-6.621 15.749,-15.2 0,-20.938 9.758,-39.629 24.953,-51.8 l 3.515,10.444 c -13.426,12.156 -21.633,29.974 -20.806,49.648 1.368,32.53 27.712,59.008 60.235,60.529 36.281,1.697 66.339,-27.33 66.339,-63.245 0,-34.91 -28.403,-63.314 -63.316,-63.314 z m 0,86.074 c -12.549,0 -22.758,-10.209 -22.758,-22.758 0,-12.549 10.209,-22.758 22.758,-22.758 12.549,0 22.758,10.209 22.758,22.758 0,12.549 -10.209,22.758 -22.758,22.758 z"
   id="path843"
   inkscape:connector-curvature="0"
   sodipodi:nodetypes="sccccsccccsscccccccccscccccsccccsssssss" />
			<path
   d="m 269.437,259.727 c 3.117,-10.448 -2.336,-21.534 -12.515,-25.441 l -17.07952,-6.34222 c -7.81676,-2.27236 -13.2029,-6.27409 -4.9841,-35.8092 10.90907,-39.20289 -16.53837,6.78553 14.70862,10.34142 l 69.342,4.03 c 10.65532,-2.60895 18.55205,-9.00616 18.365,-16.348 0.557,-9.585 -6.762,-17.807 -16.348,-18.365 l -60.037,-3.489 c -6.90971,-0.32884 -14.07587,-8.03914 -12.53783,-18.69779 5.88542,-29.65048 3.83126,-43.50791 -16.49817,-48.36821 l -45.317,-9.127 c -14.035,-2.826 -27.703,6.26 -30.53,20.294 l -14.561,72.305 v -69.587 c 0,-4.846 -3.929,-8.775 -8.775,-8.775 H 32.603 c -4.846,0 -8.775,3.929 -8.775,8.775 v 127.689 h -6.084 c -9.8,0 -17.744,7.944 -17.744,17.744 0,9.8 7.944,17.744 17.744,17.744 h 73.004 v 27.041 c -29.827,11.281 -52.235,37.663 -57.884,69.823 -1.275,7.26 4.317,13.919 11.7,13.919 h 15.524 c -0.135,1.684 -0.223,3.381 -0.223,5.099 0,34.912 28.403,63.316 63.316,63.316 34.912,0 63.316,-28.403 63.316,-63.316 0,-1.686 -0.086,-3.351 -0.216,-5.004 l 50.267,10e-4 c -15.51,-8.246 -58.759,-26.574 -53.594,-43.89 L 202.937,278.3 h 17.417 l -21.406,71.76 c -3.294,11.041 2.987,22.662 14.028,25.956 11.042,3.294 22.663,-2.988 25.956,-14.028 z M 123.18,416.942 c -12.549,0 -22.758,-10.209 -22.758,-22.758 0,-1.753 0.206,-3.458 0.583,-5.099 h 44.35 c 0.377,1.64 0.583,3.345 0.583,5.099 0,12.549 -10.21,22.758 -22.758,22.758 z m 18.266,-174.128 v -17.198 c 2.926,6.698 7.462,12.621 13.223,17.198 z"
   id="path845"
   inkscape:connector-curvature="0"
   sodipodi:nodetypes="cccsccccccccccsssscssscccscssscccccccccssccsscccc" />
		</g>
	</g>
</g>
</svg>